# xmcd
#
# Track frame offsets:
#	150
#	17271
#	32805
#	48263
#	64968
#	77098
#	92356
#	108809
#	125283
#	141953
#	159686
#	174441
#	190407
#	207943
#	233301
#
# Disc length: 3435 seconds
#
# Revision: 0
# Processed by: cddbd v1.5.2PL0 Copyright (c) Steve Scherf et al.
# Submitted via: EasyCDDAExtractor 12.0.1.1
#
DISCID=b60d690f
DTITLE=The Wilkinsons - Home
DYEAR=2007
DGENRE=Country
TTITLE0=Fast Car
TTITLE1=Trees
TTITLE2=Solitary Tear
TTITLE3=Closets
TTITLE4=Papa Come Quick
TTITLE5=I Wish It Would Rain
TTITLE6=Dying To Start Living
TTITLE7=Home
TTITLE8=Six Pack
TTITLE9=I Want To Fall Asleep In Your Arms
TTITLE10=Under The Rainbow
TTITLE11=Big Pockets
TTITLE12=Thank You
TTITLE13=Nobody Died
TTITLE14=Data Track
EXTD=
EXTT0=
EXTT1=
EXTT2=
EXTT3=
EXTT4=
EXTT5=
EXTT6=
EXTT7=
EXTT8=
EXTT9=
EXTT10=
EXTT11=
EXTT12=
EXTT13=
EXTT14=
PLAYORDER=
